<svg version="1.0" xmlns="http://www.w3.org/2000/svg" viewBox="0 0 569.000000 566.000000" preserveAspectRatio="xMidYMid meet">
<g transform="translate(0.000000,566.000000) scale(0.100000,-0.100000)"
fill="#4d8b55" stroke="none">
<path d="M4880 5630 c-281 -61 -546 -205 -739 -399 -68 -69 -162 -197 -176
-241 -3 -10 -25 -26 -48 -35 -123 -49 -333 -205 -433 -321 -88 -102 -156 -222
-199 -353 l-17 -53 -48 6 c-79 11 -600 129 -711 162 -10 3 -22 24 -28 49 -18
73 -109 240 -170 312 -70 83 -152 151 -240 197 -71 37 -133 56 -446 141 l-100
27 -115 -52 c-236 -107 -565 -263 -872 -413 -313 -153 -317 -155 -337 -198
-40 -83 -20 -113 86 -129 176 -25 418 -72 463 -90 170 -67 283 -167 360 -318
40 -79 56 -136 70 -247 12 -90 44 -243 110 -520 10 -44 46 -201 86 -377 14
-62 29 -131 34 -153 12 -51 75 -335 140 -635 28 -129 55 -253 60 -275 55 -243
56 -245 22 -245 -36 0 -141 -60 -189 -108 -193 -193 -218 -412 -63 -556 100
-92 209 -117 560 -131 96 -4 183 -11 192 -16 14 -8 18 -23 18 -73 0 -58 -3
-65 -36 -102 -120 -132 -119 -310 3 -444 l35 -40 193 0 193 0 44 48 c110 123
110 308 -1 434 -27 32 -31 42 -31 97 0 33 1 61 3 62 1 1 153 3 337 5 184 2
421 8 525 14 105 5 218 10 253 10 l62 0 0 -76 c0 -74 -1 -77 -40 -121 -21 -25
-49 -70 -61 -102 -41 -108 -8 -253 76 -334 l38 -37 190 0 190 0 37 39 c115
120 119 303 10 435 -40 48 -40 49 -40 131 0 54 4 86 13 92 6 6 53 13 102 17
87 6 91 7 123 41 37 40 40 67 12 95 -23 23 -48 24 -190 10 -475 -46 -1474 -59
-1995 -27 -442 27 -545 37 -598 57 -69 26 -112 62 -137 116 -54 110 14 244
162 320 57 29 65 30 73 4 9 -29 33 -38 152 -60 713 -126 1433 -140 2133 -40
186 26 298 49 332 66 14 8 31 28 37 46 7 21 39 56 84 95 39 34 139 120 220
190 l148 128 355 1064 c195 584 354 1071 354 1080 0 44 -28 51 -251 67 -404
27 -537 39 -804 70 -135 16 -437 56 -547 74 -219 34 -372 60 -423 71 -27 5
-61 12 -73 15 -29 6 -26 23 20 129 62 142 169 272 320 389 63 48 141 96 156
96 5 0 13 -21 17 -47 18 -123 82 -214 183 -260 45 -21 64 -24 125 -21 119 7
218 71 266 173 43 92 20 178 -72 262 -66 59 -135 89 -232 99 -36 4 -64 11 -63
15 7 20 107 128 165 179 185 160 402 262 653 306 104 18 130 33 130 74 0 62
-52 72 -200 40z m-3118 -701 c198 -54 287 -94 376 -168 93 -78 216 -277 229
-372 l5 -36 -173 -93 c-168 -89 -379 -203 -694 -374 -191 -104 -184 -102 -190
-68 -13 67 -61 199 -94 255 -20 34 -76 103 -126 152 -148 148 -290 208 -593
248 -31 4 -12 24 54 57 206 101 612 294 779 371 149 69 196 87 220 83 17 -3
110 -28 207 -55z m2500 -49 c20 -6 58 -30 85 -54 44 -40 48 -47 47 -87 -1 -36
-7 -48 -42 -80 -52 -49 -111 -66 -172 -50 -87 23 -133 93 -128 199 3 61 5 67
28 73 39 11 141 10 182 -1z m-1590 -650 c165 -41 194 -48 418 -95 69 -15 128
-30 133 -34 4 -4 0 -41 -8 -82 -27 -125 -37 -226 -44 -434 l-6 -200 -50 3
c-176 10 -879 140 -1392 257 -107 25 -197 45 -199 45 -48 0 297 199 731 421
180 92 225 121 225 146 0 19 12 17 192 -27z m743 -160 c129 -29 649 -110 935
-145 237 -28 654 -67 878 -80 61 -4 112 -11 112 -16 0 -4 -15 -25 -32 -46
-176 -206 -344 -364 -483 -457 l-89 -59 -265 6 c-395 10 -1132 68 -1171 92
-32 20 8 580 50 690 11 28 10 28 65 15z m-1865 -515 c891 -226 1965 -378 2908
-411 106 -4 194 -9 196 -13 2 -3 -16 -82 -40 -176 -45 -176 -75 -297 -169
-690 -61 -256 -67 -282 -125 -545 -62 -281 -53 -256 -108 -269 -258 -60 -728
-101 -1147 -101 -355 0 -582 16 -935 66 -261 37 -290 43 -301 68 -5 12 -43
179 -85 371 -101 467 -132 606 -299 1344 -86 380 -91 401 -78 401 4 0 86 -20
183 -45z m3700 -58 c0 -2 -119 -361 -264 -798 -145 -437 -269 -812 -275 -834
-9 -35 -29 -56 -142 -150 -72 -61 -134 -108 -137 -105 -4 3 -5 14 -3 25 15 99
271 1169 352 1476 8 31 27 50 142 133 73 53 173 132 222 175 80 70 105 89 105
78z m-1240 -2862 l0 -55 -74 0 c-67 0 -74 2 -79 21 -9 33 3 77 22 82 9 3 42 5
74 6 l57 1 0 -55z m-1584 -10 c10 -38 -3 -45 -82 -45 l-74 0 0 34 c0 40 6 43
91 38 52 -3 60 -6 65 -27z m-1 -184 c78 -36 115 -95 115 -182 0 -91 -57 -164
-147 -188 -118 -32 -243 65 -243 187 0 146 146 243 275 183z m1590 0 c190 -86
124 -374 -84 -374 -32 0 -69 7 -87 16 -46 24 -89 78 -103 130 -45 158 122 297
274 228z"/>
<path d="M2430 3252 c-16 -13 -26 -39 -36 -88 -19 -95 -44 -316 -44 -389 0
-91 -1 -91 -116 -66 -131 28 -280 74 -382 118 -89 38 -123 38 -143 2 -22 -42
-3 -68 74 -104 40 -18 99 -43 132 -55 72 -25 307 -86 370 -96 25 -3 48 -11 52
-17 4 -6 10 -110 15 -231 5 -122 10 -230 11 -241 2 -18 -3 -20 -45 -18 -58 2
-218 46 -311 85 -74 31 -99 30 -123 -6 -23 -37 -4 -72 53 -97 89 -38 217 -77
328 -100 61 -12 112 -23 113 -25 2 -1 8 -38 13 -81 15 -125 35 -154 94 -139
39 10 46 36 34 121 -6 42 -9 78 -7 80 3 3 99 -2 214 -10 115 -8 307 -15 427
-15 165 0 219 -3 222 -12 3 -7 9 -50 14 -96 10 -93 27 -122 72 -122 19 0 34 8
45 25 14 21 15 35 5 110 -7 47 -9 89 -6 94 2 5 42 12 87 16 115 9 321 42 352
57 34 15 43 51 21 84 -19 30 -22 30 -215 0 -52 -8 -133 -18 -179 -22 l-84 -7
5 226 c3 150 9 231 16 240 9 10 49 16 135 21 248 14 637 74 668 102 20 18 24
40 13 68 -14 36 -39 37 -192 11 -173 -29 -351 -50 -506 -61 l-108 -7 7 64 c4
35 18 120 31 189 31 163 31 185 -2 207 -24 15 -29 15 -53 2 -34 -19 -45 -54
-80 -269 -16 -99 -33 -185 -37 -191 -14 -23 -586 7 -828 43 -49 7 -80 17 -83
26 -9 23 15 310 36 426 21 115 18 136 -19 156 -26 14 -34 13 -60 -8z m202
-731 c162 -21 449 -40 633 -44 l110 -2 -2 -25 c-1 -14 -4 -119 -6 -235 l-4
-210 -269 1 c-238 1 -539 16 -585 30 -12 3 -18 22 -22 72 -11 107 -21 432 -14
432 3 0 75 -9 159 -19z"/>
</g>
</svg>
